<?xml version="1.0" encoding="UTF-8" standalone="no"?>
<!-- Created with Inkscape (http://www.inkscape.org/) -->

<svg
   xmlns="http://www.w3.org/2000/svg"
   id="svg3713"
>

  <path
     d="m 144.34502,337.00484 c -1.33668,-0.53969 -2.88778,-2.83453 -4.0848,-6.0434 l -1.92982,-5.17332 -1.33551,3.22421 c -1.38444,3.34234 -6.19633,6.97742 -9.24489,6.98393 -0.9625,0.002 -2.67932,-0.92558 -3.81515,-2.06141 -2.17471,-2.17471 -2.00192,-6.17329 0.44231,-10.23519 1.49958,-2.49206 8.11329,-5.83242 10.06499,-5.08348 2.60623,1.0001 1.74273,2.38382 -1.4876,2.38382 -4.36322,0 -8.1732,4.05525 -7.76667,8.26666 0.43035,4.45816 3.80729,4.89202 7.7089,0.99041 2.94611,-2.94611 3.56448,-5.05566 7.51449,-25.63544 0.83168,-4.33311 1.75438,-8.12061 2.05044,-8.41667 1.5909,-1.5909 1.57905,1.64077 -0.0348,9.49576 -3.0379,14.78591 -2.07193,25.81332 2.47431,28.24639 1.90804,1.02116 6.91947,-0.82115 8.97677,-3.30005 0.75744,-0.91266 1.67572,-3.11911 2.04061,-4.90322 0.87587,-4.28253 2.49924,-4.13927 2.90274,0.25616 0.40952,4.46113 1.3879,5.4075 5.74685,5.55887 3.9048,0.1356 4.77276,-0.86371 5.82669,-6.70839 1.15023,-6.37879 5.20617,-7.37671 8.05522,-1.98191 l 1.38969,2.63143 1.05537,-2.75 c 1.3156,-3.42806 3.7856,-3.54486 5.28683,-0.25 1.23709,2.71511 2.81805,3.33828 2.81805,1.11078 0,-0.76406 0.84842,-2.43697 1.88538,-3.71756 1.58675,-1.95955 2.13246,-2.12331 3.4452,-1.03383 0.8579,0.71199 2.3063,3.54199 3.21867,6.28889 1.80453,5.43292 3.08118,6.41228 7.05776,5.41422 2.05874,-0.51671 2.4853,-1.10151 2.04145,-2.79879 -0.71937,-2.75086 1.8884,-8.25424 5.11325,-10.79091 1.44762,-1.1387 4.03649,-1.97204 6.12315,-1.97101 3.19828,0.002 3.94437,0.5229 6.47032,4.5211 5.70465,9.02961 8.24431,8.05781 9.97851,-3.81829 0.69328,-4.74767 1.54687,-8.9185 1.89688,-9.2685 1.1583,-1.15831 2.77496,0.63966 5.74142,6.38533 l 2.93181,5.67857 0.0481,-6.78138 c 0.0382,-5.39046 0.39156,-6.91319 1.72263,-7.42397 1.71318,-0.65741 2.23044,-0.13878 6.68773,6.70535 1.90646,2.92735 2.82245,3.47339 5.59851,3.33733 2.06602,-0.10125 4.2816,-1.12516 5.8685,-2.71205 2.48599,-2.48599 2.50375,-2.59982 0.71424,-4.5772 -1.02424,-1.13178 -2.03732,-4.13185 -2.29268,-6.78943 -0.36827,-3.8327 -0.0754,-5.10742 1.5012,-6.53424 1.11916,-1.01283 2.66367,-1.50212 3.60335,-1.14153 2.43164,0.93311 1.99623,3.08833 -0.60538,2.99652 -2.00475,-0.0708 -2.24068,0.38271 -2.16446,4.16013 0.16992,8.42232 7.64248,11.45798 11.26476,4.57621 2.8711,-5.45465 1.26959,-10.32518 -9.52884,-28.9793 -3.27351,-5.65494 -1.19245,-6.64768 2.35223,-1.1221 1.51209,2.35711 5.0166,7.19658 7.78778,10.75436 l 5.03853,6.46871 0.5,-5.46871 c 0.42156,-4.61081 0.83133,-5.51599 2.61209,-5.77018 1.17358,-0.16752 3.49115,0.85891 5.21559,2.30994 4.45811,3.75125 8.96769,4.85564 11.92225,2.91973 3.48716,-2.28487 3.80305,-4.20537 1.04816,-6.37237 C 298.62585,274.98733 296.28087,264 300.58479,264 c 4.34443,0 7.71393,4.36361 8.83979,11.44779 0.344,2.16457 0.77479,4.08492 0.95731,4.26744 0.95644,0.95643 3.65153,-1.26589 5.01196,-4.13277 1.7371,-3.66068 4.60615,-14.08355 4.60615,-16.73354 0,-0.95199 0.49918,-2.03939 1.10928,-2.41646 1.34076,-0.82864 0.59366,4.56779 -2.15277,15.54976 -1.94029,7.75853 -3.44752,9.73064 -8.17692,10.69895 -1.49622,0.30635 -2.99061,1.40834 -3.32087,2.44888 -0.82994,2.61492 -5.88929,5.05097 -8.9137,4.29189 -1.35973,-0.34127 -4.59301,-2.1283 -7.18507,-3.97119 -2.59205,-1.84288 -5.13434,-3.09018 -5.64953,-2.77178 -1.00511,0.62119 -0.45322,9.67801 0.76603,12.57103 1.20042,2.84833 -1.34613,2.05832 -4.16544,-1.29223 -3.07078,-3.64942 -3.59188,-3.4239 -2.32175,1.00479 2.11438,7.37239 -3.08466,16.82584 -8.66671,15.75877 -1.72524,-0.3298 -3.50759,0.59295 -6.59305,3.41334 -6.27478,5.73571 -9.48877,5.01436 -14.13956,-3.17351 l -2.48328,-4.37189 -1.03597,2.72479 c -0.59149,1.55575 -0.7617,5.34886 -0.3967,8.84091 0.84891,8.12198 -1.19827,7.61697 -4.734,-1.16779 -1.40801,-3.49829 -3.03388,-6.51848 -3.61304,-6.71153 -1.06216,-0.35405 -2.29561,4.93316 -2.31594,9.9273 -0.0138,3.39461 -1.85178,7.52197 -3.65831,8.2152 -2.33241,0.89503 -6.23655,-1.55757 -8.47834,-5.32613 L 221.7376,319.5 l -1.45638,5 c -2.38875,8.201 -6.47578,11.27188 -10.79671,8.11233 -1.62714,-1.18979 -2.22374,-1.17407 -4.18385,0.11024 -1.34861,0.88364 -3.28006,1.24843 -4.70995,0.88955 -2.22526,-0.5585 -3.94138,-3.72575 -6.20145,-11.44528 -0.77657,-2.65248 -2.90765,-0.40736 -3.71489,3.91369 -0.4541,2.43071 -1.02518,5.43197 -1.26906,6.66947 -0.75675,3.83992 -2.11661,2.49545 -3.5401,-3.5 -0.75087,-3.1625 -1.81521,-5.75 -2.36521,-5.75 -0.55,0 -1.13306,3.0375 -1.29569,6.75 -0.30193,6.89237 -1.70733,8.94279 -2.74168,4 -1.62956,-7.78707 -2.82337,-11.17445 -4.11253,-11.66915 -1.52599,-0.58558 -1.68594,-0.29291 -3.3079,6.05266 -1.55203,6.07195 -3.08212,6.81898 -11.22077,5.47827 -0.37322,-0.0615 -1.39318,-0.82638 -2.26658,-1.69979 -1.45068,-1.45067 -1.83747,-1.32095 -4.47264,1.5 -1.58655,1.69841 -3.34228,3.08801 -3.90163,3.08801 -0.55935,0 -1.61631,0.19686 -2.34879,0.43747 -0.73249,0.24061 -2.30153,0.0459 -3.48677,-0.43263 z m 72.25639,-8.51927 c 0.90613,-1.38293 1.87503,-4.53293 2.15311,-7 C 219.2358,317.21561 219.13796,317 216.71895,317 c -4.8194,0 -9.04557,7.37932 -7.11196,12.41821 0.94957,2.47454 5.12692,1.91753 6.99442,-0.93264 z m 88.65808,-59.33982 c -2.31359,-3.09882 -3.83691,-3.68937 -4.57243,-1.77263 -0.85839,2.23693 0.54619,6.18195 3.31294,9.30496 l 2.5,2.82192 0.32034,-3.91731 c 0.21822,-2.66855 -0.27934,-4.72051 -1.56085,-6.43694 z M 66.214755,314.30715 C 63.577999,313.03013 63,312.1683 63,309.51377 63,306.59883 62.751096,306.32492 60.494254,306.75635 57.35466,307.35652 55,305.47991 55,302.37756 55,300.27392 54.543204,300 51.035184,300 c -5.049828,0 -6.395412,-2.09329 -4.890017,-7.60728 0.584523,-2.14099 1.521083,-4.45522 2.081246,-5.14272 1.462255,-1.79466 0.30492,-1.54448 -3.452243,0.74626 C 38.409552,291.87677 30,289.70875 30,284.18741 c 0,-2.05575 -0.737798,-3.02577 -3.095024,-4.06918 -2.603756,-1.15253 -3.029173,-1.81866 -2.680155,-4.19668 0.396975,-2.70476 0.223917,-2.83951 -4.012254,-3.12412 -3.927569,-0.26387 -4.778565,-0.78371 -7.541648,-4.60691 -2.9229794,-4.04445 -3.0240074,-4.46938 -1.642721,-6.90929 0.809491,-1.42988 3.559951,-4.03525 6.112133,-5.78969 l 4.64033,-3.18989 -2.64033,-1.51418 c -2.240012,-1.28461 -3.095182,-1.31432 -5.640331,-0.19593 -3.9344628,1.72887 -10.9578762,1.76661 -12.3688793,0.0665 -1.70110254,-2.0497 -0.37801245,-2.593 4.8164932,-1.97779 C 11.649488,249.3555 15,247.85265 15,244.6198 c 0,-2.82937 3.365215,-6.07737 5.462755,-5.27247 1.817105,0.69729 1.975271,2.96569 0.410633,5.88925 -0.920163,1.71934 -0.793516,2.34866 0.69113,3.43425 0.999758,0.73105 2.830175,1.32917 4.067595,1.32917 4.11906,0 3.57755,2.01972 -1.095758,4.08694 C 19.212824,256.44179 13,261.56692 13,263.60359 c 0,1.62108 1.593148,1.86373 2.508832,0.38212 1.237487,-2.0023 8.708378,-5.10034 12.68147,-5.25878 3.389579,-0.13516 4.441314,0.32318 6.438224,2.80576 L 37.015341,264.5 32.00767,268.84003 C 28.87001,271.55937 27,273.99019 27,275.34949 c 0,2.37693 3.868851,5.45221 4.884019,3.88221 C 33.147753,277.27729 39.03052,275 42.815481,275 c 2.400606,0 4.898243,0.77357 6.45739,2 1.398423,1.1 2.802207,2 3.119519,2 0.317313,0 4.47983,-3.58268 9.250038,-7.96151 4.770209,-4.37883 9.091351,-7.70302 9.60254,-7.38709 0.511188,0.31593 -3.334106,4.68611 -8.545098,9.71151 -9.64218,9.29877 -15.479598,18.44158 -14.088673,22.06627 0.922367,2.40365 5.851185,1.89408 9.237109,-0.95499 3.609996,-3.03761 5.445585,-1.48038 2.256463,1.91429 -2.394206,2.54851 -2.799114,7.1311 -0.701221,7.93613 C 61.099858,304.97555 65,304.06376 65,303.01625 c 0,-1.23114 7.830732,-6.0324 10.810779,-6.62841 4.525087,-0.90501 7.405142,2.2027 7.565898,8.16396 l 0.133113,4.93615 4.995105,1.16003 c 7.158429,1.66242 12.200145,1.58582 16.056085,-0.24394 1.84979,-0.87778 3.94279,-1.38196 4.65113,-1.1204 1.84086,0.67975 -9.15747,5.69489 -12.514705,5.70659 -1.541427,0.005 -5.899816,-0.69468 -9.685309,-1.55567 -6.023322,-1.36998 -7.171732,-1.38519 -9.197405,-0.12185 -3.725457,2.32344 -8.084291,2.69711 -11.599936,0.99444 z m 10.198674,-2.44966 2.507535,-1.14251 -1.960482,-2.49235 c -2.368626,-3.01122 -2.497359,-5.5429 -0.389053,-7.6512 C 78,299.14286 77.898396,299 75.453782,299 72.46044,299 65,305.65534 65,308.32565 65,310.33629 68.804058,313 71.675453,313 c 1.226743,0 3.358832,-0.51413 4.737976,-1.14251 z m 5.385663,-7.06453 c 0.164501,-0.84772 -0.462407,-1.83352 -1.393128,-2.19067 -2.225542,-0.85402 -2.736444,-0.2189 -1.912411,2.3774 0.746399,2.35169 2.83586,2.23366 3.305539,-0.18673 z M 45.064347,285.30292 c 3.916033,-2.31326 4.520572,-4.41086 1.886058,-6.54416 -2.846139,-2.30467 -6.678046,-2.2222 -10.700405,0.23028 -3.085641,1.88135 -4.376481,5.55115 -2.583333,7.34429 1.299231,1.29923 8.566051,0.64227 11.39768,-1.03041 z M 27.75,267.97039 c 5.527607,-3.17005 5.990629,-3.82976 4.05,-5.77039 -1.616087,-1.61609 -6.113106,-1.51384 -10.296527,0.2341 -5.550751,2.31925 -5.916251,8.51981 -0.503473,8.5412 0.825,0.003 3.8625,-1.34895 6.75,-3.00491 z M 20,243 c 0,-0.55 -0.45,-1 -1,-1 -0.55,0 -1,0.45 -1,1 0,0.55 0.45,1 1,1 0.55,0 1,-0.45 1,-1 z m 136,63.41667 c 0,-1.76593 2.15276,-1.45839 2.77083,0.39583 0.21771,0.65312 -0.31666,1.1875 -1.1875,1.1875 C 156.7125,308 156,307.2875 156,306.41667 Z M 129.54878,281.25 c -0.94249,-5.3625 -2.31129,-13.125 -3.04179,-17.25 -0.73051,-4.125 -1.61795,-9.3 -1.9721,-11.5 -0.50876,-3.16048 -3.82896,-17.58838 -7.93926,-34.5 -1.88419,-7.7524 -4.88482,-17.66341 -5.55373,-18.34382 -0.45625,-0.46411 -1.36595,2.46089 -2.02156,6.5 -0.65561,4.0391 -1.79031,9.81882 -2.52156,12.84382 -0.73124,3.025 -1.63995,7.525 -2.01935,10 -0.3794,2.475 -1.73601,9 -3.01468,14.5 -1.27868,5.5 -2.62427,13.2352 -2.990208,17.18934 -0.365937,3.95413 -1.196782,7.91612 -1.846322,8.80442 -2.023959,2.76793 -4.362068,0.78722 -5.088926,-4.31105 -1.0685,-7.4946 -7.592765,-32.72242 -15.176161,-58.68271 -0.803316,-2.75 -1.724817,-6.9125 -2.047778,-9.25 -0.322962,-2.3375 -0.846633,-4.25 -1.163714,-4.25 -0.317082,0 -1.533962,1.20076 -2.704178,2.66835 C 68.097161,198.61591 65,198.36747 65,195.23138 65,193.41736 63.236701,191 61.913499,191 c -0.377575,0 -0.924217,1.2375 -1.214759,2.75 -0.290542,1.5125 -2.136076,9.05 -4.101186,16.75 -4.633137,18.15428 -5.466567,19.04054 -17.056866,18.13807 -4.422378,-0.34435 -9.93489,-0.62878 -12.250027,-0.63208 -4.194477,-0.006 -4.221277,-0.0298 -7.590753,-6.75599 C 15.193691,212.25466 12.456379,203.68031 10.042769,191 4.2223313,160.42133 4.5236153,146.71856 11.564395,121.79462 15.530058,107.75641 16.512869,105.04801 21.449767,94.552893 23.952395,89.232674 26,84.45682 26,83.939884 26,83.422948 26.379332,83 26.842959,83 27.306587,83 30.463057,78.3875 33.857338,72.75 40.171907,62.262245 41.852207,60.464556 61.225209,43.470148 78.651772,28.183199 95.024934,18.747225 114,13.05565 c 4.125,-1.237295 7.95,-2.597052 8.5,-3.021683 5.6656,-4.374158 53.0977,-9.43392549 69,-7.3604992 4.95,0.6454074 11.475,1.2042481 14.5,1.2418685 3.88939,0.04837 7.84271,1.0583047 13.5,3.4487761 4.4,1.8592065 12.70232,4.8884026 18.4496,6.7315456 7.57373,2.428883 13.39352,5.195453 21.14648,10.052453 20.70205,12.969219 30.067,21.191523 43.72615,38.390997 16.21378,20.416242 23.63122,36.359721 32.31549,69.460892 2.78382,10.61088 3.00961,12.73704 2.92035,27.5 -0.10587,17.51017 -1.37062,31.43451 -3.51027,38.64648 -0.75818,2.55556 -3.17657,8.63056 -5.3742,13.5 -2.19762,4.86944 -4.78323,10.87852 -5.74579,13.35352 l -1.75011,4.5 -14.08885,0.3238 C 299.83998,230.00189 289.675,230.29733 285,230.48033 l -8.5,0.33273 -1.54652,12.34347 C 273.37618,255.7457 272.00993,260 269.54427,260 c -1.67076,0 -2.23527,-2.69318 -3.03935,-14.5 -0.33711,-4.95 -1.23676,-13.05 -1.99923,-18 -0.76246,-4.95 -2.11501,-17.325 -3.00567,-27.5 -0.89065,-10.175 -1.78051,-19.625 -1.97746,-21 -0.19696,-1.375 -0.3951,-3.8125 -0.44033,-5.41667 -0.10636,-3.77258 -1.20362,-2.61955 -3.08223,3.23891 -1.77286,5.52868 -4.33978,6.33073 -4.8078,1.50223 -0.35277,-3.63937 -2.88449,-6.4404 -4.07707,-4.51076 -0.40284,0.65181 -1.30416,5.34787 -2.00293,10.4357 -3.31425,24.13135 -6.29536,43.9716 -7.7007,51.25059 -0.84949,4.4 -1.76868,10.25 -2.04264,13 -0.27396,2.75 -1.55553,9.275 -2.84792,14.5 -1.2924,5.225 -2.6459,12.0891 -3.00778,15.25356 -0.47195,4.127 -1.18243,6.03425 -2.51312,6.74642 -2.45506,1.31391 -4.65843,0.37135 -5.42135,-2.31915 -2.2929,-8.08608 -4.64886,-19.8871 -6.02531,-30.18083 -0.88253,-6.6 -2.04111,-14.25 -2.5746,-17 C 212.20067,231.48907 208,200.23938 208,198.46175 208,198.20779 207.12039,198 206.04531,198 c -1.47961,0 -2.10844,0.91141 -2.58732,3.75 -1.06835,6.3328 -1.55666,7.37765 -3.29178,7.04349 -1.05044,-0.20229 -1.99208,-1.88063 -2.55664,-4.55687 -1.41126,-6.6899 -3.30502,-5.29814 -4.10028,3.01338 -0.38153,3.9875 -1.32721,12.17139 -2.10149,18.18642 -0.77429,6.01503 -1.4078,16.16652 -1.4078,22.55887 0,12.59969 -1.00233,15.77352 -4.61893,14.62566 -2.19567,-0.69688 -3.52943,-6.98131 -9.36391,-44.12095 -1.72805,-11 -3.53402,-22.025 -4.01326,-24.5 -0.47924,-2.475 -1.14506,-6.17951 -1.4796,-8.23225 -0.55809,-3.42435 -0.77232,-3.6306 -2.5968,-2.5 -2.51034,1.55561 -3.88983,-0.23958 -3.91219,-5.09107 -0.0121,-2.62123 -0.38502,-3.25286 -1.76531,-2.98979 -1.00096,0.19078 -1.87481,1.39923 -2.0416,2.82333 -0.40358,3.44591 -2.30606,6.98978 -3.75238,6.98978 -0.66331,0 -1.47602,-1.35 -1.80602,-3 -0.33,-1.65 -0.94875,-2.99965 -1.375,-2.99923 -1.00998,0.001 -4.98986,20.84257 -6.3015,32.99923 -1.20284,11.14817 -3.80685,27.92135 -4.51186,29.06207 -0.45799,0.74104 -1.61969,8.56634 -4.96402,33.43793 -1.96394,14.60569 -2.47958,16.5 -4.49143,16.5 -1.42201,0 -2.06004,-1.79925 -3.45741,-9.75 z M 137.071,260 c 0.6539,-5.225 1.99464,-13.1 2.97941,-17.5 0.98478,-4.4 2.53446,-13.85 3.44375,-21 0.90929,-7.15 2.57652,-18.4 3.70495,-25 1.12844,-6.6 2.85238,-16.81106 3.83098,-22.69126 0.97859,-5.88019 2.08682,-11.18888 2.46272,-11.7971 0.3759,-0.60822 1.69813,-6.14716 2.93828,-12.30875 2.12205,-10.5432 2.39657,-11.20289 4.66187,-11.20289 2.73796,0 2.58638,-0.50996 8.02573,27 3.64376,18.42865 4.24817,21.98876 6.28155,37 1.55245,11.46088 6.91479,43.20767 8.71988,51.62448 1.12737,5.25677 2.84667,7.41602 2.93379,3.68454 0.40213,-17.22313 3.05884,-49.31338 4.91011,-59.30902 0.50932,-2.75 1.20036,-8.375 1.53563,-12.5 0.33528,-4.125 1.08162,-10.95221 1.65855,-15.17158 0.98482,-7.20256 1.23484,-7.74858 4.08956,-8.93105 2.76271,-1.14435 3.21024,-1.04999 4.89643,1.03237 1.0207,1.2605 1.85581,3.73433 1.85581,5.49738 0,1.76306 0.42096,5.65071 0.93547,8.63922 0.51451,2.98851 2.08636,14.43366 3.49301,25.43366 1.40665,11 3.03939,23.15 3.62831,27 0.58893,3.85 1.93727,12.85 2.99631,20 3.11415,21.02466 6.18192,32.92166 8.3066,32.21343 0.59721,-0.19907 1.58293,-3.70353 2.1905,-7.78769 0.60756,-4.08416 1.86656,-10.35074 2.79778,-13.92574 2.27028,-8.71573 5.83486,-30.18083 11.12631,-67 5.5661,-38.7302 5.60295,-39.2123 3.02571,-39.58384 -1.1,-0.15858 -4.025,-0.58491 -6.5,-0.94741 -7.818,-1.14505 -11,-2.95669 -11,-6.26274 0,-5.25808 2.70405,-6.51261 12.97871,-6.02137 l 9.04728,0.43255 0.95343,-3.55859 c 0.52438,-1.95723 1.25249,-6.12058 1.61802,-9.25189 0.69125,-5.92162 2.41574,-7.87059 5.03826,-5.69409 0.76021,0.63092 1.64451,2.77618 1.96511,4.76725 l 0.58291,3.62013 11.18401,0.10842 c 13.8945,0.1347 17.92686,1.6832 17.44143,6.69785 L 287.5,140.5 l -14.25,0.90108 c -15.2797,0.9662 -15.0034,0.83576 -13.40032,6.32624 l 0.65032,2.22731 37.5,0.27269 37.5,0.27268 0.29933,-3.06194 c 0.39459,-4.03634 -4.76613,-24.1974 -9.85882,-38.51488 -3.82655,-10.757833 -10.62813,-24.926388 -13.27285,-27.649017 -1.80265,-1.855752 -17.31374,-2.741203 -22.64242,-1.292543 -4.23657,1.151756 -4.36965,1.294073 -2.5,2.673573 1.08612,0.801383 4.59005,2.188307 7.78651,3.082052 6.90073,1.929477 8.71793,4.233074 5.71117,7.239837 -2.41376,2.413755 0.1343,2.204461 -30.02292,2.466032 -23.80237,0.206451 -30.92686,1.01149 -32.57673,3.681045 -1.35374,2.190381 1.72524,2.954921 19.49107,4.839771 19.05735,2.02188 23.08566,3.25366 23.08566,7.05912 0,1.08732 -0.92393,2.90088 -2.05318,4.03013 -1.96619,1.96619 -2.7394,2.02249 -18.25,1.32891 -8.90825,-0.39834 -25.87182,-0.75978 -37.69682,-0.80318 -18.20775,-0.0668 -22.07423,0.18125 -25.25,1.62006 -4.64114,2.10272 -5.10523,5.3187 -1,6.9297 4.64295,1.82202 20.9605,3.77801 37.5,4.49514 8.6625,0.3756 15.75,1.02639 15.75,1.44621 0,1.35738 -1.81711,1.45066 -14.76408,0.75789 C 199.61159,128.92171 191,126.97045 191,120.80472 c 0,-2.22905 0.82264,-3.20352 4.25,-5.0344 4.03833,-2.15725 5.47024,-2.28402 28.75,-2.54531 13.475,-0.15124 29.99308,0.1825 36.70684,0.74166 13.35803,1.11252 17.29316,0.45185 17.29316,-2.90338 0,-2.66176 -3.57622,-3.46094 -23.85142,-5.33012 -17.1721,-1.58309 -19.97716,-2.54718 -18.74122,-6.441285 0.3371,-1.062121 2.29585,-2.773158 4.35278,-3.802305 3.30805,-1.655127 6.88207,-1.918949 30.95419,-2.284936 21.43924,-0.325956 27.4557,-0.704594 28.35176,-1.784276 1.22652,-1.477868 0.47186,-1.9168 -7.56609,-4.400638 -14.41237,-4.453625 -8.97999,-9.972246 9.8482,-10.004549 L 310.1964,77 308.15232,73.75 C 304.74956,68.33978 294.86348,55.990906 288.5,49.201962 282.29697,42.584185 266.72217,30.889415 254.5,23.672121 247.98092,19.822549 218.64694,8.9193592 209.5,6.9460059 198.57767,4.5896314 179.2666,3.7183558 164.42891,4.9124913 144.22425,6.5385608 135.86972,7.8079296 133.95247,9.5430149 133.067,10.344357 131.8647,11 131.2807,11 c -0.584,0 -5.14582,2.681698 -10.13738,5.95933 -5.46862,3.590888 -9.3326,5.54343 -9.72231,4.912868 -0.74356,-1.203116 -0.36368,-1.602247 5.07899,-5.336314 3.87809,-2.660651 3.90856,-2.725005 1,-2.111482 -1.65,0.348046 -5.57219,1.56908 -8.71598,2.713409 l -5.71599,2.080597 4.62735,5.640796 c 5.60506,6.832641 12.44364,21.062667 14.79645,30.789153 1.75931,7.272937 1.68033,18.530191 -0.18488,26.351643 -0.77471,3.248635 -5.74907,13.280922 -8.52937,17.202036 -1.88394,2.656964 -0.46882,3.067694 7.40788,2.150084 L 128.5,100.5 124.75,98.168441 c -2.0625,-1.282358 -3.75,-2.969858 -3.75,-3.75 0,-1.992176 0.34199,-1.881376 7.47869,2.422969 l 6.36915,3.84141 14.82608,0.67679 c 18.7613,0.85643 23.13113,1.71243 26.04695,5.10227 2.88709,3.35644 2.89682,6.70959 0.0291,10.03834 l -2.25,2.61175 -29.58111,0.33753 c -27.83008,0.31755 -29.82789,0.46343 -33.75,2.46434 -2.29289,1.16974 -4.16889,2.5788 -4.16889,3.13123 0,1.6059 4.70394,2.9547 10.3151,2.95775 2.85169,0.002 9.2349,0.47905 14.1849,1.06112 9.64705,1.13439 13.771,3.09445 14.32228,6.80721 0.6361,4.28405 -4.29357,5.12617 -32.58448,5.56631 -20.270272,0.31535 -79.565611,2.13633 -81.046817,2.48897 -0.169959,0.0405 -0.04914,0.49406 0.268483,1.00798 0.317625,0.51393 2.964977,1.62848 5.883003,2.47677 C 42.912173,149.03034 46,151.50641 46,154.35349 c 0,3.12965 -4.821891,3.96829 -21.75,3.78282 L 8,157.95828 l 0.0059,3.27086 c 0.027305,15.15005 10.500989,57.861 15.301422,62.39812 1.780389,1.68274 24.005553,2.59567 26.089735,1.07168 1.015627,-0.74265 2.979634,-6.44994 5.060765,-14.70629 4.27227,-16.94914 5.656197,-21.71786 8.893654,-30.64565 1.42663,-3.93415 2.891297,-9.01299 3.254817,-11.28632 0.637059,-3.98395 3.326591,-6.83823 5.296393,-5.62083 0.473741,0.29279 1.167601,3.5761 1.54191,7.29625 1.401407,13.92815 3.596411,29.84788 4.448529,32.2639 0.484955,1.375 1.655235,5.425 2.60062,9 0.945386,3.575 2.54112,9.425 3.546076,13 1.767444,6.28745 9.041831,34.39451 10.481803,40.5 0.635159,2.69308 0.79094,2.79539 1.522678,1 0.448323,-1.1 0.850902,-4.025 0.89462,-6.5 0.04372,-2.475 1.685078,-12.15 3.647458,-21.5 1.96239,-9.35 4.50295,-22.5125 5.64568,-29.25 1.71676,-10.12193 2.37696,-12.25 3.80037,-12.25 0.94748,0 2.15394,0.5625 2.68104,1.25 1.30849,1.70668 3.7659,10.10413 6.80383,23.25 1.39811,6.05 3.45373,14.57224 4.56805,18.93832 2.10223,8.23692 3.96097,18.338 5.89981,32.06168 0.62162,4.4 1.65086,9.575 2.2872,11.5 1.13952,3.44714 1.17551,3.37163 2.38335,-5 0.6745,-4.675 1.76138,-12.775 2.41529,-18 z M 136.25,92.38514 c -9.67102,-5.234172 -11.33379,-6.597284 -9.46014,-7.755267 1.14276,-0.706261 21.70286,10.679348 21.43505,11.870127 -0.42252,1.878625 -1.73287,1.428357 -11.97491,-4.11486 z M 148,81.331793 c -16.95383,-2.684419 -23.79405,-5.308423 -18.81969,-7.21949 7.66871,1.429045 9.56856,2.339501 12.75596,2.890496 C 154.18802,78.654528 155,78.873082 155,80.519052 c 0,1.46819 -1.65029,1.659799 -7,0.812741 z m 39.82412,-7.333592 c -10.82173,-1.016672 -20.63654,-2.362626 -21.81068,-2.991009 -1.38485,-0.741146 -2.02566,-1.909175 -1.82412,-3.324853 0.2676,-1.879719 1.03868,-2.224253 5.56068,-2.484599 3.77659,-0.21743 5.25,-0.708568 5.25,-1.75 C 175,62.651483 174.72025,62 174.37834,62 c -1.97836,0 -22.46942,-3.263184 -25.52552,-4.064917 -2.00594,-0.526238 -3.90432,-1.626911 -4.21861,-2.44594 C 144.19308,54.339573 142.21235,54 135.94805,54 c -5.41421,0 -7.99375,-0.362901 -7.75123,-1.090474 0.47715,-1.431439 117.01844,-2.048426 121.10743,-0.641161 2.05999,0.708966 2.72351,1.524646 2.5,3.073341 -0.5791,4.012728 -4.01987,4.627894 -25.97246,4.643552 C 204.62519,60.000384 202,60.277395 202,62.5 c 0,2.036815 2.74807,2.715611 14.36304,3.547787 11.43548,0.819315 13.85876,1.772672 12.02224,4.729737 -3.20488,5.160333 -12.26089,5.879407 -40.56116,3.220677 z m 37.5196,-2.897477 c 1.84813,-1.848134 1.8083,-1.897348 -1.97881,-2.44488 C 221.23921,68.348515 215.9,67.812451 211.5,67.46459 c -11.37461,-0.899267 -15.71508,-4.311883 -10.13475,-7.968255 1.97237,-1.292349 5.83427,-1.516682 23.25,-1.350561 11.48661,0.109565 21.89725,-0.133736 23.13475,-0.54067 2.89859,-0.953158 2.89859,-3.230634 0,-3.9352 -4.01282,-0.975405 -100.19695,0.170956 -100.53939,1.198269 -0.43791,1.313735 1.47461,1.789199 14.78939,3.676723 10.93954,1.550807 16,3.291259 16,5.502908 C 178,65.383334 173.58343,67 169.9349,67 c -2.96831,0 -3.87786,1.299186 -1.806,2.579663 2.02205,1.249699 40.16774,4.327984 47.84991,3.861397 5.56684,-0.338109 7.961,-0.936421 9.36491,-2.340336 z M 134,66.099806 c -2.50005,-0.333232 -4.27778,-1.044239 -4,-1.599806 0.6826,-1.365201 27.27075,-1.187738 27.72836,0.185073 0.66858,2.005737 -13.12458,2.828114 -23.72836,1.414733 z m -9,-19.992817 c 0,-1.068745 -0.21427,-0.981 17.81538,-7.29572 13.14573,-4.60417 17.14432,-5.37097 14.56678,-2.793434 C 156.38866,37.011336 127.84076,47 125.99481,47 125.44766,47 125,46.598145 125,46.106989 Z m -3.59316,-9.257729 c -0.95935,-1.552264 0.38611,-2.420293 9.08145,-5.858897 4.39356,-1.73745 10.7368,-4.696056 14.0961,-6.574681 6.37022,-3.56243 8.85687,-4.239473 8.18672,-2.229005 -0.21756,0.652672 -5.01591,3.532573 -10.66299,6.399779 -14.24514,7.232707 -19.93445,9.503566 -20.70128,8.262804 z M 116,28.62132 c 0,-0.758273 1.43026,-1.971114 3.17836,-2.6952 1.7481,-0.724086 5.6856,-2.954991 8.75,-4.957567 C 141.59497,12.037475 146,9.8189631 146,11.867114 146,12.731237 138.61683,18 137.40592,18 c -0.35032,0 -3.62247,1.969068 -7.27144,4.375706 C 123.70499,26.616215 117.67582,30 116.54966,30 116.24735,30 116,29.379594 116,28.62132 Z m 156.59042,213.1389 c 0.38149,-6.38098 1.05211,-12.18183 1.49027,-12.89078 0.57091,-0.92375 5.84379,-1.50783 18.60798,-2.0612 9.79623,-0.4247 20.12474,-1.03154 22.95224,-1.34854 5.08044,-0.56957 5.16726,-0.63743 7.37994,-5.76803 6.12614,-14.20482 8.28804,-19.58237 9.5785,-23.82575 2.48357,-8.16662 3.8534,-40.51463 1.81053,-42.75506 -0.57745,-0.63329 -73.1828,-0.66443 -73.81914,-0.0317 -1.17071,1.16413 4.11632,67.14078 6.28424,78.4208 0.52852,2.75 1.2567,8.825 1.61817,13.5 0.36148,4.675 0.87865,9.175 1.14929,10 1.09883,3.34968 2.27087,-1.91408 2.94798,-13.23978 z M 203.0885,196.39336 C 203.72452,195.62701 204.86479,195 205.62244,195 c 1.71655,0 1.7163,-0.016 -0.21292,-13.98433 C 203.24537,165.34631 203.16118,165 201.51613,165 c -2.24228,0 -3.30793,2.92227 -4.40148,12.06988 -2.18483,18.27625 -2.2366,19.94609 -0.63739,20.55977 0.82556,0.3168 2.03029,2.44223 2.67718,4.72317 l 1.17615,4.14718 0.80076,-4.35664 c 0.44042,-2.39615 1.32114,-4.98365 1.95715,-5.75 z M 72.110622,190.17341 c 1.257071,-1.50057 -0.798758,-23.86263 -2.27782,-24.77674 -0.458041,-0.28309 -0.823726,0.0744 -0.812633,0.79431 0.01109,0.71996 -1.396308,5.86412 -3.127558,11.43146 l -3.147727,10.12244 2.127558,2.12756 c 1.170157,1.17016 2.142529,3.14006 2.160827,4.37756 l 0.03327,2.25 1.966379,-2.5 c 1.081509,-1.375 2.466475,-3.09697 3.077704,-3.82659 z M 158,178.15499 c 0,-2.22924 2.96023,-6.65499 4.45129,-6.65499 1.55823,0 3.54871,3.43409 3.54871,6.12244 0,3.61709 0.0515,3.67876 2.33943,2.8008 1.1369,-0.43626 1.29568,-1.22793 0.65187,-3.25 -0.46813,-1.47028 -1.81108,-7.84824 -2.98433,-14.17324 -3.80944,-20.53677 -4.13809,-22 -4.94122,-22 -0.43586,0 -1.35578,2.8125 -2.04427,6.25 -0.68849,3.4375 -2.04629,8.95 -3.01732,12.25 -2.42534,8.24237 -3.48484,16.5 -2.11705,16.5 0.59113,0 1.35714,1.125 1.70225,2.5 0.85095,3.39046 2.41064,3.16723 2.41064,-0.34501 z M 254.92971,171.25 c 0.0487,-1.5599 0.68371,-2.25 2.07029,-2.25 2.34901,0 2.33706,0.20292 0.88297,-15 -0.60495,-6.325 -1.02286,-15.13396 -0.92867,-19.57546 0.13264,-6.25486 -0.18108,-8.36786 -1.39153,-9.37244 C 254.22923,123.94535 254,124.06643 254,125.87756 c 0,1.16734 -0.0737,2.45994 -0.16381,2.87244 -2.89071,13.23497 -5.79581,31.69183 -5.81825,36.96482 -0.0136,3.19455 0.46333,4.47238 1.97025,5.27886 1.09351,0.58523 2.29141,2.27216 2.66201,3.74873 0.61134,2.4358 0.74498,2.50265 1.44152,0.72114 0.42224,-1.07995 0.79934,-2.97605 0.83799,-4.21355 z M 42.80046,154.53287 c 1.415816,-1.41581 -1.448053,-3.6604 -6.503069,-5.09685 -3.188565,-0.90607 -6.45632,-2.27484 -7.261677,-3.04171 -1.283063,-1.22175 -1.247897,-1.61089 0.284146,-3.14431 1.909578,-1.91129 14.984486,-2.54655 78.56848,-3.81734 16.16359,-0.32305 30.45109,-0.99141 31.75,-1.48526 2.90038,-1.10272 3.05837,-3.50416 0.32672,-4.9661 -1.11922,-0.59899 -9.22602,-1.69037 -18.01512,-2.42528 -9.25496,-0.77388 -16.60508,-1.85485 -17.46506,-2.56857 -2.33755,-1.93999 -1.75169,-4.41407 1.63885,-6.92081 3.99714,-2.95521 17.76235,-4.10864 45.33727,-3.79895 17.76978,0.19958 19.51643,0.0627 21.44232,-1.6802 2.60552,-2.35796 2.70917,-6.72322 0.21326,-8.98199 -3.48406,-3.15303 -23.42325,-4.21441 -57.61658,-3.06699 -54.951506,1.844 -63.426537,1.83795 -65.509121,-0.0468 C 48.895896,102.5008 48,100.46436 48,98.966333 48,95.122426 52.08784,93.581696 59.885319,94.48669 66.90703,95.301646 70,94.558077 70,92.055057 70,88.741818 67.140187,87.582726 58.409208,87.35727 c -4.60455,-0.118901 -8.74177,-0.444771 -9.193822,-0.724154 -0.452053,-0.279384 -5.297945,-0.606552 -10.76865,-0.72704 L 28.5,85.687006 24.37489,93.999454 C 20.534276,101.73862 18.35707,107.7896 13.040673,125.5 c -2.175013,7.24557 -5.3612793,28.51179 -4.4140937,29.46115 1.7111827,1.71511 32.4152827,1.33032 34.1738807,-0.42828 z M 248.24867,147.25 c 0.25712,-2.0625 0.2699,-3.975 0.0284,-4.25 -0.2415,-0.275 -4.34014,-0.5 -9.10808,-0.5 -8.59765,0 -8.67148,0.0214 -8.9716,2.60689 -0.23963,2.06431 0.28069,2.83512 2.5,3.70349 3.32311,1.30026 6.48722,1.86805 11.4432,2.05344 3.48772,0.13046 3.66023,-0.0213 4.10808,-3.61382 z M 285.5,137.83566 c 0.66208,-0.64727 0.24642,-1.59371 -1.23007,-2.8008 -2.29889,-1.87943 -13.91256,-3.44205 -21.51993,-2.8955 -3.64904,0.26216 -3.75,0.37484 -3.75,4.18531 v 3.91589 l 12.75,-0.71364 c 7.0125,-0.3925 13.2,-1.15357 13.75,-1.69126 z M 55,102.08333 c 0,-0.50416 -0.5625,-1.11756 -1.25,-1.36309 -0.6875,-0.24554 -0.90215,-0.818388 -0.476999,-1.273003 0.425151,-0.454615 1.463167,0.158778 2.306704,1.363093 0.843537,1.20432 2.287032,2.18967 3.207768,2.18967 1.22271,0 0.772257,-0.87625 -1.670715,-3.25 -2.187716,-2.125724 -3.507133,-2.817586 -3.814102,-2 C 53.044528,98.4375 52.180001,99 51.381483,99 50.23951,99 50.158088,99.426872 51,101 c 1.074315,2.00738 4,2.79975 4,1.08333 z m 11,0.46819 c 0,-1.14933 -4.740587,-5.349091 -6.75,-5.979928 -2.977788,-0.93485 -2.840598,0.202519 0.437091,3.623688 C 61.948926,102.55613 66,104.06816 66,102.55152 Z m 4.36279,-2.650269 c -1.704312,-1.704312 -3.87609,-2.941812 -4.826173,-2.75 C 62.681252,97.72772 67.42888,103 70.803349,103 h 2.658189 z M 85,102.04356 C 85,101.64462 82.387288,97.53412 79.193973,92.909109 76.000658,88.284099 69.448427,78.714455 64.633459,71.643233 59.818492,64.572011 55.062632,57.910226 54.064881,56.839267 52.390154,55.041658 52.125921,55.016936 50.625395,56.517462 49.731428,57.41143 49,58.460222 49,58.848112 c 0,0.38789 3.0375,4.473624 6.75,9.07941 8.902329,11.044368 22.22955,29.426261 21.710744,29.945068 -0.225905,0.225904 -1.264064,-0.64308 -2.30702,-1.931076 -1.80977,-2.234972 -1.976544,-2.261551 -3.655502,-0.582593 -1.678959,1.678959 -1.639018,1.884682 0.87546,4.509232 2.156536,2.250937 3.541325,2.763687 7.630499,2.825377 C 82.751881,102.73498 85,102.44249 85,102.04356 Z m 26.88063,-5.169819 2.78304,-4.373741 -5.01223,-8 C 106.89471,80.1 101.72035,71.55 98.152864,65.5 91.056791,53.465981 78.258426,34 77.442451,34 75.827395,34 72,37.493936 72,38.968282 c 0,0.956044 3.668207,6.86679 8.15157,13.13499 C 84.634934,58.371472 92.117835,69.35 96.780239,76.5 c 4.662401,7.15 9.807011,14.6875 11.432461,16.75 1.62545,2.0625 2.47037,3.75 1.8776,3.75 -1.18773,0 -5.29621,-5.380946 -10.926559,-14.310716 C 91.466987,70.482183 83.465145,58.430904 81.94275,56.753383 80.751832,55.441117 74.263635,46.12381 70.402209,40.180712 70.068687,39.66739 66,42.414273 66,43.152766 66,43.522186 74.325,56.272404 84.5,71.486585 94.675,86.700765 103,99.418708 103,99.74868 103,100.07865 101.875,99.291745 100.5,98 99.125,96.708255 98,95.287288 98,94.842296 98,94.397304 93.944128,88.13519 88.986951,80.926487 84.029775,73.717784 79.474265,66.84781 78.863596,65.659877 78.252927,64.471945 74.802723,59.08973 71.196475,53.6994 l -6.556814,-9.8006 -2.902285,2.902285 -2.902285,2.902286 3.770936,5.898314 c 4.644244,7.2643 8.962116,13.130793 22.242153,30.219379 5.691499,7.323751 10.068648,13.595441 9.726999,13.937091 -0.34165,0.341645 -1.2592,-0.289719 -2.039,-1.40304 C 91.756378,97.241793 89.629228,94.49714 87.80918,92.255884 83.082634,86.435493 63.799407,60.297327 60.492356,55.22828 57.868928,51.207092 57.599321,51.052634 55.895382,52.594678 53.931971,54.37154 53.080464,52.993045 79.913681,91.477639 l 7.413681,10.632811 10.885109,-0.43148 10.885109,-0.43149 z m 5.68945,-10.009253 1.62143,-3.135513 -7.84575,-11.363794 c -4.31517,-6.250086 -8.701,-12.826606 -9.74629,-14.614487 C 91.068532,39.738421 85.687236,30.924735 84.937766,30.461537 c -0.730345,-0.451378 -4.312569,0.852356 -5.786477,2.105962 -0.191792,0.163125 3.436547,6.06467 8.062976,13.114546 C 91.840693,52.73192 96.905905,60.75 98.470292,63.5 101.64639,69.083188 115.21657,90 115.66267,90 c 0.15728,0 1.01562,-1.410981 1.90741,-3.135512 z M 66.992004,85.25 C 66.978991,84.029355 48.26997,60.682503 46.891593,60.166842 c -0.489798,-0.183237 -1.161604,0.37322 -1.492902,1.23657 -0.378328,0.985905 1.221544,3.899264 4.30158,7.833158 2.697167,3.444887 5.271809,6.93843 5.721424,7.76343 0.874612,1.604825 -4.831192,-4.359837 -9.364663,-9.789513 -2.271,-2.719946 -2.946839,-3.048188 -3.903279,-1.895748 -0.912569,1.099578 -0.380193,2.427132 2.522221,6.289514 7.794583,10.372623 10.522828,12.863323 14.782659,13.495553 6.283984,0.932648 7.54198,0.957729 7.533371,0.150194 z m -9.01206,-3.774166 c -0.69572,-0.838291 -1.071285,-1.717826 -0.83459,-1.954522 0.236696,-0.236695 0.979634,0.44918 1.650975,1.524166 1.451813,2.324723 0.967628,2.57996 -0.816385,0.430356 z M 53,84.295992 C 53,83.468792 40.487631,69 39.772283,69 c -1.802058,0 -0.487789,3.16644 3.643682,8.778646 2.428781,3.299265 5.016281,6.198769 5.75,6.443342 C 50.786413,84.762138 53,84.804864 53,84.295992 Z M 36,83.122445 C 36,81.843691 33.059623,79.607044 32.333333,80.333333 31.607044,81.059623 33.843691,84 35.122445,84 35.6051,84 36,83.6051 36,83.122445 Z m 5,0.157782 c 0,-1.029688 -6.323496,-6.290064 -6.885591,-5.727969 -0.257732,0.257732 0.820281,1.81391 2.395585,3.458173 C 39.27954,83.901214 41,84.770945 41,83.280227 Z m 0.838049,-4.759549 C 39.310958,75.285008 37.191142,73.408858 36.66115,73.93885 35.576976,75.023024 42.812466,84 44.770489,84 c 0.772497,0 -0.47816,-2.336878 -2.93244,-5.479322 z M 117.26793,70.286255 C 115.06498,66.553815 110.88182,59 107.97201,53.5 102.16857,42.530588 92.404255,26.367877 91.090132,25.555705 90.632544,25.2729 89.279095,25.890647 88.082467,26.928477 l -2.175687,1.886963 3.395398,5.34228 c 1.867468,2.938254 4.52656,7.36728 5.909092,9.84228 6.4073,11.470301 10.64568,18.239818 17.15082,27.393178 6.31171,8.881195 7.12708,9.677658 7.97105,7.786254 0.74774,-1.675754 0.12046,-3.495687 -3.06521,-8.893177 z m 3.63785,-10.690101 C 120.24061,57.893269 117.3653,53.35 114.51621,49.5 c -2.84908,-3.85 -6.65722,-9.7 -8.46253,-13 -1.8053,-3.3 -4.38897,-7.475819 -5.74149,-9.279599 -1.352518,-1.803779 -2.283904,-3.80526 -2.069745,-4.447737 0.449162,-1.347486 5.437465,5.635369 8.734765,12.227336 1.89038,3.779238 8.08082,12.825839 11.29068,16.5 1.69871,1.94442 -0.57076,-4.792014 -3.99849,-11.868663 C 110.26689,31.368027 103.6427,22.33876 100.95778,21.486601 99.281857,20.954683 93,23.358794 93,24.532101 c 0,0.264408 3.376659,6.117381 7.50369,13.006607 4.12703,6.889226 9.13634,15.773837 11.1318,19.743579 1.99546,3.969742 5.0313,9.242713 6.74631,11.717713 l 3.1182,4.5 0.3076,-5.403846 c 0.16917,-2.972116 -0.23664,-6.797116 -0.90182,-8.5 z M 69,283.5 c 0,-0.825 0.7301,-1.5 1.622445,-1.5 1.32879,0 1.397126,0.27149 0.377555,1.5 -0.684689,0.825 -1.414789,1.5 -1.622445,1.5 C 69.1699,285 69,284.325 69,283.5 Z m 253,-38.08333 c 0,-0.87084 0.53438,-1.40521 1.1875,-1.1875 C 325.04172,244.84724 325.34926,247 323.58333,247 322.7125,247 322,246.2875 322,245.41667 Z"
     id="path3725"
 />
</svg>
